<svg width="42" height="42" viewBox="0 0 42 42" fill="none" xmlns="http://www.w3.org/2000/svg">
<path fill-rule="evenodd" clip-rule="evenodd" d="M21 0C9.40313 0 0 9.6375 0 21.5344C0 31.05 6.01875 39.1125 14.3625 41.9625C15.4125 42.1594 15.7969 41.4938 15.7969 40.9219C15.7969 40.4062 15.7781 39.0562 15.7687 37.2562C9.92812 38.5594 8.69062 34.3688 8.69062 34.3688C7.73437 31.8844 6.35625 31.2188 6.35625 31.2188C4.45313 29.8781 6.49688 29.9062 6.49688 29.9062C8.60625 30.0562 9.7125 32.1281 9.7125 32.1281C11.5875 35.4188 14.625 34.4719 15.825 33.9187C16.0125 32.5312 16.5562 31.575 17.1562 31.0406C12.4969 30.4969 7.59375 28.65 7.59375 20.4C7.59375 18.0469 8.40938 16.125 9.75 14.625C9.53438 14.0813 8.8125 11.8875 9.95625 8.925C9.95625 8.925 11.7188 8.34375 15.7313 11.1281C17.4094 10.65 19.2 10.4156 20.9906 10.4062C22.7719 10.4156 24.5719 10.65 26.25 11.1281C30.2625 8.34375 32.0156 8.925 32.0156 8.925C33.1594 11.8875 32.4375 14.0813 32.2219 14.625C33.5625 16.1344 34.3781 18.0563 34.3781 20.4C34.3781 28.6688 29.4656 30.4875 24.7875 31.0219C25.5375 31.6875 26.2125 33 26.2125 35.0062C26.2125 37.8844 26.1844 40.2094 26.1844 40.9125C26.1844 41.4844 26.5594 42.1594 27.6281 41.9437C35.9906 39.1031 42 31.0406 42 21.5344C42 9.6375 32.5969 0 21 0Z" fill="white"/>
</svg>
