<svg width="75" height="75" viewBox="0 0 75 75" fill="none" xmlns="http://www.w3.org/2000/svg">
<path d="M37.5 15.625C35.7741 15.625 34.375 17.0241 34.375 18.75V31.25C34.375 32.9759 35.7741 34.375 37.5 34.375C39.2259 34.375 40.625 32.9759 40.625 31.25V18.75C40.625 17.0241 39.2259 15.625 37.5 15.625Z" fill="#FFFFFF"/>
<path fill-rule="evenodd" clip-rule="evenodd" d="M12.5 25C12.5 11.1929 23.6929 0 37.5 0C51.3072 0 62.5 11.1929 62.5 25V50C62.5 63.8072 51.3072 75 37.5 75C23.6929 75 12.5 63.8072 12.5 50V25ZM56.25 25V50C56.25 60.3553 47.8553 68.75 37.5 68.75C27.1447 68.75 18.75 60.3553 18.75 50V25C18.75 14.6447 27.1447 6.25 37.5 6.25C47.8553 6.25 56.25 14.6447 56.25 25Z" fill="#FFFFFF"/>
</svg>
